<?xml version="1.0"?>
<svg xmlns="http://www.w3.org/2000/svg" xmlns:xlink="http://www.w3.org/1999/xlink" version="1.1" id="Capa_1" x="0px" y="0px" viewBox="0 0 512 512" style="enable-background:new 0 0 512 512;" xml:space="preserve" width="512px" height="512px" class=""><g><path style="fill:#CACACA" d="M256,496C123.664,496,16,388.336,16,256S123.664,16,256,16s240,107.664,240,240S388.336,496,256,496z  " data-original="#FFFFFF" class="active-path" data-old_color="#FFFFFF"/><path style="fill:#CACACA" d="M256,32c123.512,0,224,100.488,224,224S379.512,480,256,480S32,379.512,32,256S132.488,32,256,32   M256,0C114.616,0,0,114.616,0,256s114.616,256,256,256s256-114.616,256-256S397.384,0,256,0L256,0z" data-original="#AAC1CE" class="" data-old_color="#AAC1CE"/></g> </svg>
